<svg width="249" height="117" viewBox="0 0 249 117" fill="none" xmlns="http://www.w3.org/2000/svg">
<g clip-path="url(#clip0_21_316)">
<path d="M239.21 76.76C237.03 75.07 234.82 74.21 232.59 74.21C231.19 74.21 230.02 74.62 229.08 75.42C228.15 76.24 227.67 77.28 227.67 78.57C227.67 79.78 228.08 80.77 228.9 81.59C229.72 82.4 230.85 82.8 232.26 82.8C234.71 82.8 237.02 81.78 239.19 79.74V76.76H239.21ZM248.56 81.77V86.28H239.7V83.14C237.26 85.52 234.53 86.71 231.52 86.71C229.18 86.71 227.15 85.95 225.43 84.43C223.7 82.91 222.84 80.97 222.84 78.59C222.84 76.21 223.76 74.22 225.59 72.65C227.43 71.07 229.64 70.28 232.22 70.28C234.63 70.28 236.96 71.01 239.21 72.46V69.9C239.21 68.58 239.08 67.57 238.84 66.85C238.59 66.14 238.01 65.5 237.09 64.93C236.18 64.36 234.99 64.08 233.51 64.08C230.97 64.08 229.14 65.1 228 67.13L223.17 65.85C225.32 61.84 229.03 59.84 234.29 59.84C236.22 59.84 237.9 60.1 239.3 60.62C240.71 61.15 241.77 61.82 242.45 62.64C243.15 63.46 243.61 64.35 243.85 65.31C244.09 66.26 244.21 67.78 244.21 69.88V81.76H248.56V81.77ZM205.37 81.77V65.07H200.2V60.56H209.39V66.35C209.96 64.85 210.75 63.59 211.76 62.61C212.78 61.61 213.84 60.96 214.97 60.65C216.1 60.33 217.64 60.18 219.59 60.18H220.92V65.29H219.91C217.34 65.29 215.42 65.54 214.15 66.06C212.88 66.57 211.95 67.5 211.33 68.85C210.72 70.2 210.41 72.63 210.41 76.12V81.77H216.01V86.28H200.18V81.77H205.35H205.37ZM189.01 76.76C186.83 75.07 184.62 74.21 182.39 74.21C180.99 74.21 179.82 74.62 178.88 75.42C177.95 76.24 177.47 77.28 177.47 78.57C177.47 79.78 177.88 80.77 178.7 81.59C179.52 82.4 180.65 82.8 182.06 82.8C184.51 82.8 186.82 81.78 188.99 79.74V76.76H189.01ZM198.36 81.77V86.28H189.5V83.14C187.06 85.52 184.33 86.71 181.32 86.71C178.98 86.71 176.95 85.95 175.23 84.43C173.5 82.91 172.64 80.97 172.64 78.59C172.64 76.21 173.56 74.22 175.39 72.65C177.23 71.07 179.44 70.28 182.03 70.28C184.44 70.28 186.77 71.01 189.02 72.46V69.9C189.02 68.58 188.89 67.57 188.65 66.85C188.4 66.14 187.82 65.5 186.9 64.93C185.99 64.36 184.8 64.08 183.32 64.08C180.78 64.08 178.95 65.1 177.81 67.13L172.98 65.85C175.13 61.84 178.84 59.84 184.1 59.84C186.03 59.84 187.71 60.1 189.11 60.62C190.52 61.15 191.58 61.82 192.26 62.64C192.96 63.46 193.42 64.35 193.66 65.31C193.9 66.26 194.02 67.78 194.02 69.88V81.76H198.37L198.36 81.77ZM138.97 86.72L132.07 65.07H128.92V60.56H139.8V65.07H136.42L141.35 80.58L146.25 65.07H143.44V60.56H155.84V65.07H153.03L157.93 80.58L162.84 65.07H159.31V60.56H170.89V65.07H167.19L160.32 86.72H155.59L149.71 68.13L143.72 86.72H138.96H138.97ZM102.01 86.28V72.9H106.63V76.17C108.85 80.19 111.75 82.2 115.33 82.2C117.16 82.2 118.7 81.64 119.96 80.52C121.22 79.41 121.85 77.94 121.85 76.12C121.85 74.3 121.33 73.1 120.31 72.33C119.29 71.55 117.35 70.79 114.49 70.02C111.17 69.14 108.73 68.3 107.13 67.51C105.53 66.72 104.26 65.6 103.31 64.14C102.36 62.68 101.89 60.95 101.89 58.95C101.89 55.85 102.92 53.38 104.99 51.53C107.06 49.68 109.66 48.76 112.78 48.76C115.9 48.76 118.5 49.71 121.04 51.62V49.14H125.55V60.34H121.04V57.77C119.14 54.91 116.53 53.49 113.18 53.49C111.16 53.49 109.61 53.95 108.52 54.89C107.44 55.82 106.9 56.94 106.9 58.23C106.9 59.23 107.17 60.1 107.72 60.85C108.27 61.61 108.97 62.16 109.82 62.52C110.67 62.87 112.34 63.37 114.84 64.02C118.09 64.87 120.46 65.67 121.94 66.4C123.41 67.13 124.68 68.36 125.75 70.08C126.81 71.79 127.35 73.77 127.35 76C127.35 79.15 126.23 81.75 124.01 83.8C121.78 85.86 119.02 86.88 115.74 86.88C112.46 86.88 109.33 85.67 106.63 83.25V86.29H102.01V86.28Z" fill="#FF6666"/>
<path d="M29.49 94.22C30.54 93.35 31.4499 92.34 32.1899 91.23C32.9799 90.05 33.5699 88.76 33.9199 87.43C34.2699 86.11 34.37 84.74 34.18 83.41C34.01 82.16 33.58 80.94 32.86 79.8C32.77 79.65 32.67 79.5 32.56 79.35C32.45 79.19 32.34 79.05 32.25 78.93C31.24 77.65 29.59 75.32 27.87 72.4C26.64 70.31 25.38 67.91 24.28 65.36C23.37 63.25 22.5699 61.01 21.9799 58.73C21.4599 56.71 21.11 54.66 21 52.63C20.69 46.8 21.44 41.46 23 36.69C24.69 31.53 27.32 27.05 30.6 23.32C32.23 21.46 34.03 19.8 35.95 18.33C37.91 16.83 39.99 15.55 42.16 14.49C44.31 13.44 46.5499 12.61 48.8499 12.01C51.1399 11.41 53.47 11.05 55.81 10.92C59.95 10.7 64.11 11.25 68.08 12.62C71.86 13.93 75.4599 15.98 78.7099 18.83C80.8999 20.76 82.49 23.46 83.75 26.41C84.98 29.31 85.8899 32.47 86.7299 35.38L87.0999 36.65C87.2299 37.08 87.3499 37.51 87.4799 37.94C88.1799 40.26 89.1699 42.17 90.1999 43.78C91.2499 45.41 92.3399 46.72 93.2599 47.82L93.2999 47.86C93.6899 48.32 94.0399 48.75 94.3399 49.13C94.5899 49.45 94.8799 49.8 95.1399 50.11L95.16 50.13C96.06 51.22 96.7099 52.01 96.9899 52.93C97.2899 53.9 97.14 54.89 96.41 56.29C95.85 57.35 94.8199 58.14 93.7299 58.71C93.1699 59 92.5999 59.24 92.0799 59.43C92.8499 60 93.5099 60.49 93.9199 61.21C94.3599 61.98 94.4699 62.93 94.0499 64.32C93.7799 65.21 93.37 65.87 92.91 66.38C92.71 66.6 92.5099 66.78 92.3099 66.95C93.2699 67.72 94.0699 68.65 93.7299 70.25C93.3699 71.95 92.4799 72.35 91.5399 72.78C91.1099 72.98 90.6499 73.18 90.3099 73.58C90.0999 73.84 90.7699 74.14 91.0399 75.06L91.0699 75.17C91.3099 76.01 91.5699 76.9 91.7199 77.76C91.8899 78.7 91.9499 79.66 91.7699 80.56C91.4899 82.05 90.7199 83.27 89.1299 83.96C87.6599 84.59 85.47 84.73 82.26 84.12C80.3 83.75 78.76 83.4 77.44 83.11L77.37 83.09C76.72 82.95 76.1299 82.81 75.5299 82.69C75.0699 82.59 74.6099 82.51 74.1399 82.43C74.0799 82.5 74.01 82.58 73.93 82.64C72.82 83.61 71.72 84.65 70.72 85.75C69.73 86.84 68.84 88 68.12 89.23C67.44 90.38 66.9299 91.6 66.6399 92.88C66.3499 94.15 66.2999 95.49 66.5299 96.9C66.9999 99.67 68.2399 100.99 68.8799 101.51C67.8699 101.81 66.42 102.17 64.44 102.43C64.25 102.14 64.06 101.82 63.88 101.48C63.32 100.43 62.84 99.14 62.57 97.55C62.24 95.62 62.32 93.79 62.7 92.06C63.08 90.34 63.77 88.72 64.66 87.2C65.36 86.01 66.18 84.88 67.07 83.83C67.63 83.17 68.22 82.53 68.83 81.91C68.43 81.89 68.0199 81.87 67.5899 81.86C66.8999 81.84 66.18 81.82 65.41 81.8C63.09 81.76 60.93 81.45 58.91 80.92C56.76 80.36 54.78 79.55 52.99 78.55C51.06 77.47 49.3399 76.18 47.8499 74.75C46.2599 73.22 44.9199 71.54 43.8499 69.78C42.5699 67.69 41.4999 64.92 40.6199 62.15C39.9199 59.94 39.35 57.73 38.93 55.87C40.4 58.28 42.3999 60.38 44.7999 62.04C44.9999 62.64 45.21 63.22 45.43 63.79C45.99 65.24 46.5999 66.58 47.2799 67.69C48.1799 69.17 49.2999 70.58 50.6399 71.86C51.8899 73.06 53.33 74.15 54.95 75.05C56.46 75.89 58.13 76.58 59.95 77.05C61.66 77.5 63.51 77.76 65.48 77.8C66.34 77.82 67.11 77.84 67.8 77.86C68.53 77.88 69.16 77.91 69.72 77.94C70.36 77.98 70.91 78.01 71.4 78.05C71.91 78.09 72.3799 78.14 72.8399 78.19C73.8499 78.31 74.7299 78.45 75.5999 78.61C76.4199 78.77 77.2899 78.96 78.2799 79.18H78.3C79.52 79.46 80.95 79.78 83 80.17C84.95 80.54 86.2199 80.59 86.9999 80.42H87.0199C87.5499 80.3 87.7799 80.08 87.8299 79.81C87.9999 78.94 87.5799 77.49 87.2099 76.2L87.1899 76.14C86.9999 75.47 86.8099 74.83 86.6999 74.24C86.5699 73.58 86.5199 72.95 86.6199 72.37L86.6399 72.28C86.9199 71.08 87.0599 70.5 89.0299 69.46C88.6399 69.17 88.2799 68.87 87.9899 68.51C87.5899 68 87.3499 67.41 87.4299 66.63C87.4999 65.96 87.7299 65.49 88.0799 65.1L88.1199 65.06C88.4299 64.72 88.7899 64.49 89.1899 64.23C89.5699 63.98 90.0499 63.66 90.1999 63.15C90.2099 63.1 90.1999 63.07 90.1999 63.05L90.1799 63.02C90.0899 62.91 89.8999 62.77 89.6799 62.61C89.1899 62.25 88.6399 61.84 88.1199 61.32C86.0499 59.25 86.3999 57.87 87.2399 57.03C87.9699 56.3 89.0999 56.07 89.1199 56.07H89.2099C89.5499 55.99 92.2999 55.44 92.8499 54.4C92.9699 54.17 92.98 54 92.91 53.83C92.78 53.54 92.4799 53.17 92.0599 52.66L92.0199 52.61C91.7599 52.3 91.4799 51.96 91.1799 51.57C90.8699 51.18 90.5499 50.79 90.1999 50.37L90.1499 50.31C89.1399 49.1 87.9399 47.65 86.7799 45.83C85.5999 43.99 84.47 41.77 83.65 39.07L83.2799 37.82C83.1499 37.37 82.97 36.85 82.87 36.4C81.34 31.09 79.5399 24.88 76.0599 21.81C73.2199 19.31 70.0699 17.51 66.7699 16.37C63.2899 15.17 59.65 14.69 56.02 14.89C53.95 15 51.8899 15.32 49.8699 15.85C47.8399 16.38 45.85 17.12 43.93 18.06C41.99 19.01 40.1399 20.15 38.3899 21.48C36.6799 22.78 35.0799 24.27 33.6199 25.93C30.6799 29.27 28.3199 33.3 26.8099 37.94C25.3999 42.25 24.73 47.09 25.01 52.38C25.1 54.14 25.4199 55.94 25.8799 57.73C26.4099 59.76 27.1399 61.79 27.9699 63.72C29.0099 66.14 30.19 68.38 31.32 70.32C32.93 73.06 34.45 75.21 35.38 76.39C35.54 76.59 35.69 76.79 35.83 76.99C35.97 77.19 36.11 77.4 36.24 77.6C37.27 79.23 37.8799 80.98 38.1399 82.75C38.4099 84.62 38.27 86.53 37.79 88.37C37.34 90.07 36.6 91.73 35.61 93.24C34.8 94.49 33.8099 95.65 32.6899 96.67C33.0899 96.89 33.49 97.11 33.9 97.32C31.96 96.42 30.52 95.23 29.49 94.15" fill="#336666"/>
<path d="M59.2 38.84C58.51 42.52 58.27 45.62 56.72 46.71V34.77C56.72 34.2 56.25 33.98 58.3 33.98C58.3 33.71 58.06 33.5 57.76 33.5H53C52.7 33.5 52.46 33.72 52.46 33.98C54.45 33.98 54.0401 34.2 54.0401 34.79V46.84C52.3001 45.88 52.08 42.68 51.36 38.84C50.72 35.41 48.08 35.25 46.76 35.39C46.64 35.4 46.63 35.55 46.76 35.58C49.57 36.1 48.9 40.51 49.34 43.5C49.68 45.75 51.23 47.4 54.05 47.78V56.91C54.05 56.91 52.2 58.04 52.2 58.41V58.52H58.5601V58.41C58.5601 58.04 56.73 56.9 56.71 56.88V47.76C59.43 47.35 60.89 45.71 61.22 43.5C61.67 40.51 61 36.1 63.8 35.58C63.92 35.56 63.91 35.41 63.8 35.39C62.48 35.24 59.84 35.41 59.2 38.84Z" fill="#FF6666"/>
<path fill-rule="evenodd" clip-rule="evenodd" d="M55.3899 30.44C63.6999 30.44 70.4299 37.17 70.4299 45.48C70.4299 53.79 63.6999 60.52 55.3899 60.52C47.0799 60.52 40.3499 53.79 40.3499 45.48C40.3499 37.17 47.0799 30.44 55.3899 30.44ZM55.3899 27.26C65.4499 27.26 73.6099 35.42 73.6099 45.48C73.6099 55.54 65.4499 63.7 55.3899 63.7C45.3299 63.7 37.1699 55.54 37.1699 45.48C37.1699 35.42 45.3299 27.26 55.3899 27.26Z" fill="#FF6666"/>
<path fill-rule="evenodd" clip-rule="evenodd" d="M58.43 0C86.39 0 109.76 19.64 115.5 45.88C114.1 45.97 112.7 46.16 111.33 46.47C105.88 22.27 84.27 4.2 58.43 4.2C28.48 4.2 4.2 28.48 4.2 58.43C4.2 88.38 28.48 112.66 58.43 112.66C76.22 112.66 92.01 104.09 101.9 90.86C103.26 91.44 104.7 91.86 106.15 92.16C95.57 107.1 78.14 116.86 58.44 116.86C26.16 116.85 0 90.7 0 58.43C0 26.16 26.16 0 58.43 0Z" fill="#336666"/>
<path d="M244.88 100.014L244.921 100.329C244.921 100.329 245.123 99.9735 245.42 99.2492C245.718 98.5249 246.015 98.0193 246.312 97.705C246.609 97.4043 246.92 97.254 247.244 97.254C247.487 97.254 247.676 97.295 247.811 97.3907C247.946 97.4863 248 97.582 248 97.705C248 97.91 247.959 98.0603 247.865 98.1833C247.77 98.3063 247.622 98.4566 247.406 98.6342C246.487 99.3722 245.826 100.26 245.42 101.313C245.015 102.365 244.813 103.24 244.813 103.936C244.813 104.264 244.853 104.483 244.934 104.606C245.015 104.729 245.218 104.825 245.542 104.907C245.866 104.989 246.069 105.071 246.163 105.166C246.258 105.262 246.298 105.371 246.298 105.494C246.298 105.713 246.177 105.822 245.92 105.822C245.718 105.822 245.434 105.781 245.083 105.713C244.718 105.645 244.34 105.604 243.921 105.604C243.638 105.604 243.367 105.645 243.084 105.713C242.8 105.781 242.625 105.822 242.544 105.822C242.341 105.822 242.179 105.781 242.057 105.699C241.936 105.617 241.868 105.522 241.868 105.385C241.868 105.289 241.895 105.207 241.976 105.125C242.044 105.057 242.233 104.961 242.557 104.852C242.868 104.743 243.07 104.62 243.138 104.51C243.205 104.401 243.246 104.046 243.246 103.445V99.9871C243.246 99.7685 243.192 99.5772 243.097 99.3995C243.003 99.2219 242.8 99.0989 242.517 98.9896C242.22 98.8939 242.057 98.8119 242.003 98.7436C241.949 98.6752 241.922 98.5932 241.922 98.5113C241.922 98.2516 242.098 98.1286 242.436 98.1286C242.53 98.1286 242.692 98.1423 242.908 98.1833C243.124 98.2243 243.286 98.2379 243.367 98.2379C243.435 98.2379 243.557 98.2243 243.719 98.1969C243.881 98.1696 244.083 98.156 244.299 98.156C244.691 98.156 244.88 98.5933 244.88 99.4678V100.028V100.014ZM238.303 101.067C238.465 101.067 238.586 101.039 238.64 100.971C238.694 100.916 238.721 100.807 238.721 100.643C238.721 100.069 238.505 99.5362 238.073 99.0306C237.641 98.5249 236.993 98.2789 236.128 98.2789C235.521 98.2789 234.913 98.5796 234.265 99.1809C233.63 99.7822 233.306 100.629 233.306 101.723C233.306 102.529 233.643 103.24 234.319 103.882C234.994 104.524 235.75 104.838 236.588 104.838C237.222 104.838 237.898 104.633 238.64 104.21C238.924 104.046 239.1 103.977 239.194 103.977C239.329 103.977 239.424 104.018 239.505 104.1C239.586 104.169 239.613 104.278 239.613 104.387C239.613 104.661 239.208 105.002 238.411 105.399C237.614 105.795 236.79 106 235.953 106C234.71 106 233.657 105.549 232.806 104.647C231.955 103.745 231.523 102.679 231.523 101.449C231.523 100.315 231.996 99.3449 232.927 98.5386C233.859 97.7323 234.913 97.336 236.074 97.336C237.587 97.336 238.708 97.746 239.464 98.5522C240.221 99.3722 240.585 100.342 240.585 101.463C240.585 101.709 240.531 101.859 240.41 101.914C240.302 101.969 240.086 101.996 239.775 101.996H234.832C234.427 101.996 234.224 101.832 234.224 101.518C234.224 101.203 234.44 101.067 234.845 101.067H238.289H238.303ZM222.379 99.5908C222.379 99.3039 222.325 99.0989 222.231 98.9485C222.123 98.8119 221.907 98.7026 221.583 98.6479C221.245 98.5796 221.083 98.4293 221.083 98.1696C221.083 98.0603 221.137 97.951 221.258 97.8416C221.38 97.7323 221.529 97.6913 221.718 97.6913C221.799 97.6913 221.934 97.7186 222.136 97.7733C222.339 97.828 222.501 97.8553 222.636 97.8553C222.717 97.8553 222.893 97.828 223.19 97.787C223.473 97.746 223.649 97.7187 223.73 97.7187C223.879 97.7187 223.973 97.787 224.027 97.91C224.081 98.033 224.122 98.2926 224.122 98.6752C224.135 99.3039 224.149 99.9871 224.149 100.698L224.081 103.964C224.081 104.196 224.095 104.346 224.135 104.401C224.162 104.456 224.257 104.524 224.392 104.606C224.527 104.688 224.702 104.756 224.905 104.797C225.121 104.838 225.243 104.907 225.31 104.989C225.364 105.071 225.391 105.166 225.391 105.276C225.391 105.535 225.202 105.658 224.824 105.658C224.567 105.658 224.297 105.631 224.027 105.576C223.744 105.522 223.487 105.494 223.217 105.494C223.001 105.494 222.717 105.522 222.379 105.563C222.042 105.604 221.785 105.631 221.61 105.631C221.245 105.631 221.056 105.481 221.056 105.207C221.056 105.084 221.083 104.989 221.15 104.907C221.218 104.825 221.353 104.784 221.569 104.77C221.812 104.756 221.961 104.715 222.028 104.661C222.19 104.483 222.298 104.319 222.339 104.182C222.379 104.046 222.406 103.759 222.406 103.335V99.5908H222.379ZM228.997 103.977C228.997 104.305 229.051 104.524 229.159 104.62C229.267 104.715 229.456 104.797 229.727 104.866C229.997 104.934 230.132 105.057 230.132 105.235C230.132 105.481 229.997 105.59 229.727 105.59C229.673 105.59 229.456 105.576 229.078 105.549C228.7 105.522 228.376 105.508 228.106 105.508C227.674 105.508 227.309 105.535 227.012 105.604C226.715 105.672 226.526 105.699 226.431 105.699C226.296 105.699 226.175 105.658 226.067 105.563C225.945 105.467 225.891 105.358 225.891 105.235C225.891 105.139 225.945 105.043 226.026 104.948C226.121 104.852 226.229 104.811 226.35 104.811C226.58 104.811 226.782 104.743 226.971 104.606C227.147 104.456 227.242 104.251 227.242 103.977C227.242 102.146 227.242 100.998 227.269 100.561C227.296 100.124 227.296 99.8778 227.296 99.8231C227.296 99.2219 227.039 98.9349 226.526 98.9349C226.31 98.9349 225.985 99.1125 225.58 99.4678C225.175 99.8232 224.878 100.001 224.716 100.001C224.662 100.001 224.594 99.9598 224.527 99.8778C224.459 99.7958 224.419 99.7138 224.419 99.6318C224.419 99.3585 224.743 98.9486 225.405 98.4019C226.067 97.8553 226.715 97.582 227.35 97.582C227.728 97.582 228.038 97.6777 228.322 97.8826C228.592 98.0876 228.781 98.3336 228.862 98.6479C228.957 98.9486 228.997 99.3859 228.997 99.9461V100.67V103.977ZM211.588 99.5908C211.588 99.3039 211.534 99.0989 211.426 98.9485C211.318 98.8119 211.102 98.7026 210.778 98.6479C210.44 98.5796 210.278 98.4293 210.278 98.1696C210.278 98.0603 210.332 97.951 210.454 97.8416C210.575 97.7323 210.724 97.6913 210.913 97.6913C210.994 97.6913 211.129 97.7186 211.332 97.7733C211.534 97.828 211.696 97.8553 211.831 97.8553C211.912 97.8553 212.088 97.828 212.385 97.787C212.669 97.746 212.844 97.7187 212.925 97.7187C213.074 97.7187 213.168 97.787 213.222 97.91C213.276 98.033 213.317 98.2926 213.317 98.6752C213.33 99.3039 213.344 99.9871 213.344 100.698L213.276 103.964C213.276 104.196 213.29 104.346 213.33 104.401C213.358 104.456 213.452 104.524 213.587 104.606C213.722 104.688 213.898 104.756 214.1 104.797C214.316 104.838 214.438 104.907 214.506 104.989C214.56 105.071 214.587 105.166 214.587 105.276C214.587 105.535 214.397 105.658 214.019 105.658C213.763 105.658 213.493 105.631 213.222 105.576C212.939 105.522 212.682 105.494 212.412 105.494C212.196 105.494 211.912 105.522 211.575 105.563C211.237 105.604 210.98 105.631 210.805 105.631C210.44 105.631 210.251 105.481 210.251 105.207C210.251 105.084 210.278 104.989 210.346 104.907C210.413 104.825 210.548 104.784 210.764 104.77C211.007 104.756 211.156 104.715 211.224 104.661C211.386 104.483 211.494 104.319 211.534 104.182C211.575 104.046 211.602 103.759 211.602 103.335V99.5908H211.588ZM218.206 103.977C218.206 104.305 218.26 104.524 218.368 104.62C218.476 104.715 218.665 104.797 218.935 104.866C219.206 104.934 219.341 105.057 219.341 105.235C219.341 105.481 219.206 105.59 218.935 105.59C218.881 105.59 218.665 105.576 218.287 105.549C217.909 105.522 217.585 105.508 217.315 105.508C216.883 105.508 216.518 105.535 216.221 105.604C215.924 105.672 215.735 105.699 215.64 105.699C215.505 105.699 215.383 105.658 215.275 105.563C215.167 105.467 215.1 105.358 215.1 105.235C215.1 105.139 215.154 105.043 215.235 104.948C215.329 104.852 215.437 104.811 215.559 104.811C215.789 104.811 215.991 104.743 216.18 104.606C216.356 104.456 216.45 104.251 216.45 103.977C216.45 102.146 216.45 100.998 216.477 100.561C216.504 100.124 216.504 99.8778 216.504 99.8231C216.504 99.2219 216.248 98.9349 215.735 98.9349C215.518 98.9349 215.194 99.1125 214.789 99.4678C214.384 99.8232 214.087 100.001 213.925 100.001C213.871 100.001 213.803 99.9598 213.736 99.8778C213.668 99.7958 213.628 99.7138 213.628 99.6318C213.628 99.3585 213.952 98.9486 214.614 98.4019C215.275 97.8553 215.924 97.582 216.558 97.582C216.937 97.582 217.247 97.6777 217.531 97.8826C217.801 98.0876 217.99 98.3336 218.071 98.6479C218.166 98.9486 218.206 99.3859 218.206 99.9461V100.67V103.977ZM207.266 103.745C207.266 104.114 207.334 104.36 207.469 104.483C207.604 104.592 207.766 104.674 207.982 104.702C208.198 104.743 208.347 104.784 208.441 104.852C208.536 104.92 208.576 105.043 208.576 105.235C208.576 105.494 208.36 105.617 207.942 105.617C207.766 105.617 207.496 105.604 207.131 105.563C206.767 105.522 206.497 105.508 206.321 105.508C206.145 105.508 205.902 105.535 205.565 105.59C205.227 105.645 204.984 105.672 204.822 105.672C204.66 105.672 204.511 105.617 204.39 105.522C204.268 105.426 204.214 105.289 204.214 105.125C204.214 105.03 204.241 104.934 204.309 104.866C204.376 104.797 204.538 104.729 204.808 104.688C205.078 104.647 205.254 104.551 205.362 104.415C205.47 104.278 205.511 103.95 205.511 103.417V99.5498C205.511 99.2219 205.443 99.0032 205.308 98.8939C205.173 98.7846 204.984 98.7026 204.741 98.6616C204.484 98.6069 204.336 98.5386 204.268 98.4566C204.201 98.3746 204.174 98.2653 204.174 98.1423C204.174 98.0056 204.228 97.8963 204.336 97.8006C204.444 97.705 204.565 97.664 204.714 97.664C204.835 97.664 205.011 97.6913 205.24 97.7596C205.47 97.828 205.646 97.8553 205.74 97.8553C205.862 97.8553 206.051 97.828 206.307 97.787C206.564 97.746 206.753 97.7187 206.875 97.7187C207.145 97.7187 207.28 97.951 207.28 98.4293C207.28 98.4976 207.28 98.6069 207.28 98.7299C207.28 98.8529 207.28 98.9486 207.28 98.9896V103.745H207.266ZM206.375 93.865C206.699 93.865 206.983 93.9879 207.226 94.2476C207.469 94.5072 207.591 94.7942 207.591 95.1495C207.591 95.4502 207.469 95.7235 207.239 95.9285C207.01 96.1471 206.726 96.2564 206.402 96.2564C206.078 96.2564 205.794 96.1334 205.565 95.9011C205.335 95.6688 205.213 95.3818 205.213 95.0539C205.213 94.7259 205.322 94.4662 205.565 94.2339C205.794 94.0016 206.064 93.8786 206.375 93.8786V93.865ZM195.543 94.4662C195.543 93.619 195.624 92.922 195.8 92.3754C195.962 91.8288 196.246 91.3368 196.637 90.8585C197.029 90.3939 197.488 89.9976 198.001 89.656C198.515 89.3143 198.852 89.1503 199.001 89.1503C199.095 89.1503 199.149 89.3006 199.149 89.6013C199.149 89.6423 199.082 89.7106 198.947 89.8336C198.298 90.3392 197.866 90.9678 197.623 91.6921C197.38 92.4301 197.259 93.2363 197.259 94.1246V97.8143C197.259 97.91 197.313 97.951 197.434 97.951C197.488 97.951 197.61 97.951 197.799 97.91C197.988 97.8826 198.177 97.869 198.366 97.869C198.785 97.869 198.987 98.0193 198.987 98.3199C198.987 98.4703 198.92 98.5796 198.785 98.6752C198.65 98.7572 198.488 98.7982 198.298 98.7982C197.61 98.7982 197.259 99.0989 197.259 99.6865V103.65C197.259 104.032 197.286 104.264 197.353 104.346C197.421 104.442 197.502 104.524 197.61 104.633C197.718 104.743 197.934 104.811 198.285 104.852C198.623 104.893 198.839 104.961 198.92 105.043C199.001 105.112 199.041 105.221 199.041 105.344C199.041 105.645 198.825 105.795 198.407 105.795C198.163 105.795 197.853 105.754 197.475 105.672C197.096 105.59 196.732 105.549 196.354 105.549C196.124 105.549 195.786 105.59 195.368 105.672C194.949 105.754 194.679 105.795 194.571 105.795C194.112 105.795 193.882 105.631 193.882 105.303C193.882 105.194 193.909 105.098 193.977 105.043C194.044 104.975 194.233 104.92 194.544 104.879C194.854 104.838 195.084 104.77 195.233 104.661C195.381 104.565 195.462 104.428 195.489 104.278C195.516 104.128 195.53 103.8 195.53 103.294V99.6455C195.53 99.0989 195.206 98.8256 194.571 98.8256C194.071 98.8256 193.828 98.6616 193.828 98.3199C193.828 98.0193 194.085 97.869 194.584 97.869C194.76 97.869 194.936 97.869 195.098 97.91C195.26 97.9373 195.368 97.951 195.395 97.951C195.476 97.951 195.53 97.91 195.53 97.8143V94.4799L195.543 94.4662ZM188.466 104.893C189.29 104.893 189.965 104.579 190.465 103.95C190.965 103.322 191.208 102.515 191.208 101.559C191.208 100.602 190.938 99.8368 190.411 99.2219C189.884 98.6206 189.209 98.3063 188.385 98.3063C187.561 98.3063 186.9 98.6069 186.427 99.2082C185.968 99.8095 185.738 100.575 185.738 101.518C185.738 102.556 185.995 103.376 186.508 103.991C187.021 104.592 187.669 104.907 188.466 104.907V104.893ZM188.466 97.3087C189.668 97.3087 190.708 97.746 191.6 98.6069C192.491 99.4678 192.937 100.465 192.937 101.6C192.937 102.871 192.518 103.895 191.654 104.702C190.803 105.494 189.668 105.904 188.237 105.904C187.116 105.904 186.089 105.494 185.198 104.688C184.306 103.868 183.847 102.857 183.847 101.654C183.847 100.452 184.239 99.4815 185.036 98.6206C185.833 97.746 186.967 97.3224 188.466 97.3224V97.3087ZM176.986 101.067C177.148 101.067 177.256 101.039 177.324 100.971C177.378 100.916 177.405 100.807 177.405 100.643C177.405 100.069 177.189 99.5362 176.757 99.0306C176.324 98.5249 175.676 98.2789 174.812 98.2789C174.204 98.2789 173.596 98.5796 172.948 99.1809C172.313 99.7822 171.989 100.629 171.989 101.723C171.989 102.529 172.327 103.24 173.002 103.882C173.677 104.524 174.434 104.838 175.271 104.838C175.906 104.838 176.581 104.633 177.324 104.21C177.608 104.046 177.783 103.977 177.878 103.977C178.013 103.977 178.107 104.018 178.188 104.1C178.269 104.169 178.296 104.278 178.296 104.387C178.296 104.661 177.891 105.002 177.094 105.399C176.297 105.795 175.474 106 174.636 106C173.394 106 172.34 105.549 171.489 104.647C170.639 103.745 170.206 102.679 170.206 101.449C170.206 100.315 170.679 99.3449 171.611 98.5386C172.543 97.7323 173.596 97.336 174.758 97.336C176.27 97.336 177.391 97.746 178.148 98.5522C178.891 99.3722 179.269 100.342 179.269 101.463C179.269 101.709 179.215 101.859 179.093 101.914C178.985 101.969 178.769 101.996 178.458 101.996H173.515C173.11 101.996 172.907 101.832 172.907 101.518C172.907 101.203 173.124 101.067 173.529 101.067H176.973H176.986ZM168.734 104.032C168.937 104.032 169.031 104.21 169.031 104.565C169.031 104.784 168.667 105.084 167.937 105.44C167.208 105.795 166.438 105.973 165.641 105.973C164.331 105.973 163.197 105.549 162.265 104.715C161.333 103.882 160.86 102.816 160.86 101.545C160.86 100.411 161.306 99.4132 162.197 98.5659C163.089 97.705 164.142 97.2814 165.371 97.2814C166.033 97.2814 166.789 97.4317 167.64 97.705C168.491 97.992 168.91 98.2516 168.91 98.4839C168.91 98.9076 168.937 99.2492 168.977 99.5088C169.018 99.7685 169.045 99.9188 169.045 99.9598C169.045 100.301 168.896 100.465 168.586 100.465C168.356 100.465 168.18 100.233 168.059 99.7822C167.924 99.3312 167.667 98.9622 167.262 98.7026C166.857 98.4293 166.357 98.2926 165.763 98.2926C165.02 98.2926 164.331 98.5796 163.683 99.1672C163.048 99.7412 162.724 100.575 162.724 101.641C162.724 102.625 163.089 103.417 163.805 104.046C164.52 104.674 165.277 104.975 166.047 104.975C166.33 104.975 166.627 104.934 166.924 104.866C167.235 104.784 167.573 104.633 167.937 104.401C168.316 104.169 168.572 104.046 168.734 104.046V104.032ZM158.159 103.745C158.159 104.114 158.227 104.36 158.362 104.483C158.497 104.592 158.659 104.674 158.875 104.702C159.091 104.743 159.24 104.784 159.334 104.852C159.429 104.92 159.469 105.043 159.469 105.235C159.469 105.494 159.253 105.617 158.834 105.617C158.659 105.617 158.389 105.604 158.024 105.563C157.659 105.522 157.389 105.508 157.214 105.508C157.038 105.508 156.795 105.535 156.457 105.59C156.12 105.645 155.877 105.672 155.715 105.672C155.552 105.672 155.404 105.617 155.282 105.522C155.161 105.426 155.107 105.289 155.107 105.125C155.107 105.03 155.134 104.934 155.201 104.866C155.269 104.797 155.431 104.729 155.701 104.688C155.971 104.647 156.147 104.551 156.255 104.415C156.363 104.278 156.403 103.95 156.403 103.417V99.5498C156.403 99.2219 156.336 99.0032 156.201 98.8939C156.066 98.7846 155.877 98.7026 155.634 98.6616C155.377 98.6069 155.228 98.5386 155.161 98.4566C155.093 98.3746 155.066 98.2653 155.066 98.1423C155.066 98.0056 155.12 97.8963 155.228 97.8006C155.336 97.705 155.458 97.664 155.607 97.664C155.728 97.664 155.904 97.6913 156.133 97.7596C156.363 97.828 156.538 97.8553 156.633 97.8553C156.755 97.8553 156.944 97.828 157.2 97.787C157.457 97.746 157.646 97.7187 157.767 97.7187C158.038 97.7187 158.173 97.951 158.173 98.4293C158.173 98.4976 158.173 98.6069 158.173 98.7299C158.173 98.8529 158.173 98.9486 158.173 98.9896V103.745H158.159ZM157.268 93.865C157.592 93.865 157.875 93.9879 158.119 94.2476C158.362 94.5072 158.47 94.7942 158.47 95.1495C158.47 95.4502 158.348 95.7235 158.119 95.9285C157.889 96.1471 157.605 96.2564 157.281 96.2564C156.957 96.2564 156.673 96.1334 156.444 95.9011C156.214 95.6688 156.093 95.3818 156.093 95.0539C156.093 94.7259 156.201 94.4662 156.444 94.2339C156.673 94.0016 156.944 93.8786 157.254 93.8786L157.268 93.865ZM149.34 104.893C150.177 104.893 150.839 104.579 151.339 103.95C151.838 103.322 152.081 102.515 152.081 101.559C152.081 100.602 151.811 99.8368 151.285 99.2219C150.758 98.6206 150.083 98.3063 149.259 98.3063C148.435 98.3063 147.773 98.6069 147.3 99.2082C146.841 99.8095 146.612 100.575 146.612 101.518C146.612 102.556 146.868 103.376 147.381 103.991C147.895 104.592 148.543 104.907 149.34 104.907V104.893ZM149.326 97.3087C150.528 97.3087 151.568 97.746 152.46 98.6069C153.351 99.4678 153.797 100.465 153.797 101.6C153.797 102.871 153.378 103.895 152.514 104.702C151.663 105.494 150.528 105.904 149.097 105.904C147.976 105.904 146.949 105.494 146.058 104.688C145.167 103.868 144.707 102.857 144.707 101.654C144.707 100.452 145.099 99.4815 145.896 98.6206C146.693 97.746 147.827 97.3224 149.326 97.3224V97.3087ZM140.602 91.3915C140.683 91.1182 140.737 90.9269 140.737 90.7765C140.737 90.4349 140.453 90.2436 139.899 90.2026C139.602 90.1752 139.386 90.1206 139.264 90.0386C139.143 89.9703 139.075 89.8063 139.075 89.5603C139.075 89.41 139.129 89.287 139.251 89.1913C139.372 89.082 139.548 89.0273 139.791 89.0273C139.994 89.0273 140.277 89.0683 140.642 89.1503C141.007 89.2323 141.371 89.2733 141.763 89.2733C142.033 89.2733 142.317 89.2323 142.614 89.1503C142.911 89.0683 143.181 89.0273 143.411 89.0273C143.667 89.0273 143.856 89.082 143.991 89.205C144.127 89.328 144.194 89.4783 144.194 89.656C144.194 89.9156 144.1 90.0659 143.91 90.1479C143.721 90.2299 143.492 90.2709 143.208 90.2709C142.871 90.2709 142.56 90.3939 142.29 90.6262C142.02 90.8722 141.777 91.3095 141.56 91.9654L137.185 105.139C137.185 105.139 137.144 105.289 137.104 105.453C137.063 105.617 137.009 105.74 136.941 105.795C136.874 105.85 136.779 105.891 136.685 105.891C136.604 105.891 136.523 105.85 136.442 105.781C136.374 105.699 136.307 105.576 136.253 105.399C136.199 105.221 136.158 105.112 136.145 105.071L131.296 91.4598C131.012 90.6809 130.594 90.2982 130.013 90.2982C129.689 90.2982 129.432 90.2299 129.257 90.0933C129.081 89.9566 129 89.7789 129 89.5466C129 89.2187 129.23 89.0547 129.702 89.0547C130.026 89.0547 130.418 89.1093 130.891 89.205C131.364 89.3006 131.674 89.3553 131.836 89.3553C131.998 89.3553 132.349 89.3006 132.917 89.1777C133.484 89.0547 133.835 89 133.957 89C134.74 89 135.132 89.205 135.132 89.6286C135.132 89.8609 135.064 90.0249 134.929 90.1342C134.794 90.2299 134.564 90.2846 134.254 90.2846C133.578 90.2846 133.241 90.5032 133.241 90.9405C133.241 91.1045 133.281 91.2958 133.376 91.5145L136.982 101.49L137.131 101.75L137.252 101.504L140.629 91.3642L140.602 91.3915Z" fill="#336666"/>
</g>
<defs>
<clipPath id="clip0_21_316">
<rect width="248.56" height="116.85" fill="white"/>
</clipPath>
</defs>
</svg>
